<mxfile>
    <diagram id="Jrg-Osz9_B8IKe7K-ZjF" name="Page-1">
        <mxGraphModel dx="1204" dy="652" grid="1" gridSize="10" guides="1" tooltips="1" connect="1" arrows="1" fold="1" page="1" pageScale="1" pageWidth="827" pageHeight="1169" math="0" shadow="0">
            <root>
                <mxCell id="0"/>
                <mxCell id="1" parent="0"/>
                <mxCell id="18" value="Production" style="rounded=0;whiteSpace=wrap;html=1;dashed=1;strokeWidth=3;align=center;labelPosition=center;verticalLabelPosition=top;verticalAlign=bottom;fontSize=18;" vertex="1" parent="1">
                    <mxGeometry x="220" y="170" width="547.25" height="230" as="geometry"/>
                </mxCell>
                <mxCell id="24" value="Server" style="rounded=0;whiteSpace=wrap;html=1;dashed=1;strokeWidth=3;align=center;labelPosition=center;verticalLabelPosition=bottom;verticalAlign=top;fontSize=18;" vertex="1" parent="1">
                    <mxGeometry x="430" y="204.5" width="320" height="145.5" as="geometry"/>
                </mxCell>
                <mxCell id="2" value="" style="aspect=fixed;html=1;points=[];align=center;image;fontSize=12;image=img/lib/mscae/Docker.svg;" vertex="1" parent="1">
                    <mxGeometry x="590" y="300" width="50" height="41" as="geometry"/>
                </mxCell>
                <mxCell id="3" value="" style="aspect=fixed;html=1;points=[];align=center;image;fontSize=12;image=img/lib/mscae/Docker.svg;" vertex="1" parent="1">
                    <mxGeometry x="671.5" y="300" width="50" height="41" as="geometry"/>
                </mxCell>
                <mxCell id="8" value="" style="shape=image;verticalLabelPosition=bottom;labelBackgroundColor=#ffffff;verticalAlign=top;aspect=fixed;imageAspect=0;image=data:image/png,iVBORw0KGgoAAAANSUhEUgAAAOEAAADhCAMAAAAJbSJIAAAAqFBMVEX/////wQcCd73/vwD/vgAAcrsAdbzw+PwbfsD//PD/xB0Ab7r//fkAer97rtb/2X3+ySn/02EmiMX/6bW00ecAbblDjMb/z2L/8c/S5PH/9t7/24f/4JT/xzH/7MD//faWvt7p8/lhoNBSmc3c6/X/8dP/+ur/46C41er/5KL/y0b/9uOlyuSSu9zI3u90p9Jgmcz+zk3/1XH/6sJ2rtb/zkr/2Hb/6K9d20cUAAAIbUlEQVR4nO2daXPiOBBAMbJlwIEMhwn36QzgcCyZ7OT//7M1kIBMAKtbgjas3pepomoSvehqSS2RyRgMBoPBYDAYDAaDwWAwGAwGQ4pw3WA5nc8Hg0XEYF5bDl2XukyaGAbTxWpcKfq+70U4G6J/fd/J1VeLWjCkLqAKw+VgVC9urDjn2Z/wjWuu/jG9T8tlqcIjuZNqR54er9eoiwulufJ8Cbm9ZPS3WNxTt6xVIj1Zu29JrzinLrcsy4oH1dvhje+jP66QfhFOdkld+mTciof1y26aaupHHLfiKAjeg+JYTTDCaVI7XGSu0kS/arFILXEJN4ceZIRKXFFrXGDuqwtGk0aKB9S6hiqMKnFM7XGWITiQOaOY2sGmpj7O7AxL1CbnKClPFTt4Lq1B+Eg03KycPGSz9dPaTIWBhnvjebPZXORQDdcbUKuc4TAbcucr+HJLmAkktVNi8duQC6PhAKHI64QWl9j3ulj4PIKPP7xC5nCZb5V4FQSIrpijUkjg29BZxD6GRzqpjb6/Db1p7OMVuJmm3zAeOsMDgfQbxjfN4ENN6g2dkfipW4QKpt+Q80D4FLHuT71hbIU3lN/5viPDrLdvpwFmY+MODLNOZbpZAQ0XiBq8D8Ms93Pjf+oct/99F4abcp4+NHwgQzzGkAxjaAyNIT2+I0vCLJJaw4+SLAmhnGD4p3pEr/HayhNKSpKwsSEYru2fWIX15I2w9DLIG5aZ9RPGbHvdICx/MoqGW0u7/JvQIAkNhpGjVSVUSECLYVSNHUKHy+gxtCz7mVDiIroMrdTWojZDy+5do3yuMvoMWUHviNqslcb1nDoX/UCGFnvXp1cb7XJ+9SRc6DK07D969IIS+lT+yoasq8NvuLqdHtTQsjVM/POstqXfFQzVK9Eda8oEupKhZSsG4cPcbSsQbsjKSoJB8YYdEGdoWSpz4rBye0GwodJYo57WfAND9oIXXNx6kMEZWuidm6aWpN+rGyqMpnqSfuFADVkbKTilqcIsP+RESRqu76wKhbQxOUPLwgkuSYaZbCwNWtLQbqEM4elamhBSjkJJw0+MoJu0UL0azuGWXkHOELcOJpoqom54SMd5kuyGDNURdaXegxEScF8lDS37CWE4phpJhQzhmS1riJjz3SyRoZieupauQ0TwTdUNxczGfEFSEBXVDGhmQ86FMlRlGykqqkHk2GsRFDM3pRupxX7BDUlmQ87FDOqGdBVG9KGCLkU3dIqxG0+yQekWcNxGEZR6ldiTA6AqZK9QQw2XloE43tG9Q8mIbQd8Qrxx2M0dbxzES9CBVCHi+OKWa0POPT46vnPYgNQgZnWhHtFwKRzH853x/MebH/ku0HACFHSVTmKiNuf72YoE9XFpfvJ2+r8wQbhhgO+GUbXkVrUg+XdcogzqhBEMeqKPniy4kx2pPxkAFoQbTpGGDi+pP6PThwvCWyluOuT+SMMzQS3gILMznAF/ywDTDx0+Tf7JicwYQhC+QFwgDL26jgpcw1vo1hA64yM2aTwNd8xbf1EVGMGgUdsH2ND/UNV7+lPG+iEib7Chpyj4Wi0XbLRfBDRrGNpK4/dGv+j3Js/r8FcyBcu2bXz9bShA/6RAQ+fnKwitTrgtthQqblvgKSfQsfQ4SOutmVKbAxuC8zFgM/7R7e1MI7ypnoUI2mDvBR297PT0fms/zI4wKPL2YjN9q4Cbs9UMwRtRTUA/jL/r1NMwbiAMoYKZobwhd8RhpkoiiNkQlk+UjU2FDRJB1LGFfLaX+NDH79uPMVswR0/SxxaxB4Ekj931GyJy96QXiI4QkEofaGqGgWO2DGAbQzjQzFtEVYhKVBhKnsxwfpgMJ0RVCN+k2SI7mB4ytJ4w+ytaYKgLl5KJCkJqyCtVFbIuJhNDdnUhzIYdqipE3u+SHGqEkO2FrJHistqGUMMn0HmfTkFsrr5cVCMY0vhFjRR8/PuF3BmpYHhvVSi5CKY3xERsO+Re6SI3BB9YCEgddFMb2ipXgqTyvogNWQjOFBIIZE66aQ1ZV+0VEJlmSmpod1VqMKImsb4gNGS2+i1niWcr6QztAipBP47EzjeVIWPPWh7iSX7XkcSQ2VZb00sDyT3xloa7cyqbWWWNb0Uk3rCEGBaU6YbrdhW3VjpHkJTfJm/IXvp5RRTnhtMktVOI4TXKp4GEt/8fwDCzujhlPIJhpnTpJdmHMMzMnfMj6mMYZoK6f64aH8Qwk1nWvaitntB8GMOoHgf1HN9+HWwM/3EMI9yguZzWjtjn2CfGNN1naSgtz5MctUkmSDHcndfrozPypnY5jTE0hsaQHmN4np8ptNQup8Ea2tb6ZW3Fk6moXU6DM2TWbLMrmK/GTpCpXU6DMmTd713Bvngfj1TkLBhDJl4yF9Jx6CwugTGMPZLbeEDDo8TXQ2YjkUICGMP4Mqn9gIbxZKbDQx9ECglgDOPJy7MHNIxvbLw/Xiu1mHgG2C+k3RAuaLG/wg/YPxOR1l2MzC/MhHg4qe7teyEqbfsWgJ6T2St2vrJfZ4f/reeJ7ivQRoXedrfz2nqdhEKCseLTx9ejh8uC3pxb27HFE/o50muTRwmeAJd6fwtQHfGUYWq/BwjZTH9ylfN6Lei5cJHmIxz5N/IucZ1vVtGE/CN550HeD7kROu52pboKdQw2GlIqr4vqFUQWUhskonZFz/43zZ3wC4Xb3Cy18VqcVogMUO0wtcHMEU8TRDVGfukeROPk2zbk3vpmefGMvZ9FRf8zZDKP6mxzfsP2vTTPOG/Vv6G1e4TnpNpGrhCWJ407+G7Y8/xuVdvvYYFtvwR2l6b99YWw3ZfnTq+V5u8ShdDPv/U+Z50tk9lntfGW79/BvGcwGAwGg8FgMBgMBoPBYDAY/mf8B6gd2frQZJjuAAAAAElFTkSuQmCC;" vertex="1" parent="1">
                    <mxGeometry x="587.5" y="204.5" width="55" height="55" as="geometry"/>
                </mxCell>
                <mxCell id="10" value="" style="aspect=fixed;html=1;points=[];align=center;image;fontSize=12;image=img/lib/azure2/databases/Azure_Database_PostgreSQL_Server.svg;" vertex="1" parent="1">
                    <mxGeometry x="673.5" y="200" width="48" height="64" as="geometry"/>
                </mxCell>
                <mxCell id="11" value="" style="shape=image;verticalLabelPosition=bottom;labelBackgroundColor=#ffffff;verticalAlign=top;aspect=fixed;imageAspect=0;image=data:image/png,iVBORw0KGgoAAAANSUhEUgAAAakAAAB3CAMAAACOsU+CAAAAwFBMVEX///9DAJg8AJX18PoxAJFUJp+AYLZaKaRXLaH59v03AJTArdvYy+pNG5z59/xxSa+rmc2Odrzx6vjMwOGynNPn4vChi8ja0OnEt9zh1u+4qdVxUK5NBZ9RDqDr6PJ+Y7SQcr+3pNXn3/KplM1nP6rGtd6dhsZRGKBWI6Kaf8WHZruHbLpjOqiSdsDMvuJgLad0TrEYAIuJcrl6WrNrPq3d1+qQccChhclaIaWaiMN+ZrOQfb56X7JoOKy0n9R5WLJd9YgiAAALuElEQVR4nO2de1viOBSHSRrFRkQW5CLIjCJYcLzNepnZnXH4/t9qSyv0JDlJi02rZfP7Yx6fSdqkfZvbycmhVos0GT6SgjS/Hfg1JzvyzjmnRZEilJM/H/2EO6JBwAvDFIsfex/9kLugAS2uPW1QvTpUuTU5Kx5UiOrbRz9n9fUYg+JkvleEjt5aLOt89INWXZN4jKK907ZXhLqN/QgVHX30k1ZdrYgU7RdYRI9FRXQLLOL/oNeo67sstIzpqlWxYaFl7L6ivi+YFFrGxard0ttCy9h9RaQOirUidFbdH70utIzdVxmkGhGp/ULL2H05UlWRI1UVOVJVkSNVFTlSVZGelN9O1DTeA2RsY+mOlA3pSfUYXctsXm1+32TkxxhTR8qGDKSS/UUzqWhhG4v+jWVwpGzIAqlWkpH3sAyOlA1ZIPWQbEUy1CbvSNlQflJN6IWBbsI7UjaUn9QMDFM4DUfKhvKT+go6vws0hyNlQ7lJeaDz47gHkiNlQ7lJgWz0HM/iSNlQXlL+UdKk8JmfI2VHeUn9AU3qWJPHkbKhnKS8A9CkGppMjpQN5SQF7BP0QZfJkbKhfKTaQdKkqNbByZGyoXykboHJ70pbhiNlQ7lINUDfV9fvYTlSNpSL1DgxT9BTfRmOlA3lIXUO+j7cjhTLkbKhHKQuvrO1vusHqZojZUc5SH0BMpaxI6S89mQy6bY/6nx5vrlfNqWTgieuxJQmSJHnLClHt8TsPpLDN3vywKL6P5Y38zEhQX369aJroKWrcFMoWZciVkhI+BSkmvf1teavYtJFsEkKZmLS5GfdpECs9MtczXIz+rvXUD4AVae3c7aJLkAp59NL7bnlGagwHLwXoLbzV/jCtY/YHScJd5+EVHLWmJ6JSa1kn5Idikmn5tAMXKz0PhIgYOVNxcjoxHxc/HRfKYhycqVpV4egwq3kvy/APSgXTv2dgCuEQ2ZdkDD4LKSSlzAWk4C5SiFlPkouk9LmDtvIQt+umrcMvZKTGZofkOIJqWfhUtFAegKm0CIpkOBIrV+7zhQ2IdpgHQx9IpSUH4DSufQcjtQWpMLc+N5ag5mumSLvDSX1CEHJnnaO1Fak6BnmqN3QNqj4IgQVRuoS3Ib9JV/hSG1FivCvar1So6pw9UgsQqoPGib/qgyJjtR2pJD+r/kgXrOan0t34UrwLpWUNwa3QCJIFUnK975MOrOLk4tZ/0uGgEhlkKKKmJ5U+MZDUTFgFFUCBrWEvo8fjRY/Fsu51CHKUxGV1BLMzwMkKkcxpJp+4+TX48EZZ4yFDxv+M/92abYllULq6FjRkzgXhqQWf1qt1uVifypM7ObSSNUFbYHQ8TBObg8D4QuRH0shdQn6PnTHoQBS3uHVEw8X61KfwNnSHCKmeFL0X2MFVoKkNu+r/Rf0VnwWr1jAtGXSd/hfIV8uvXyZVAfOJtBRxDIpf/YrYEwTYI6ya/SI25tKIIVMByQBUjD2EHxKcSkreB5MhaQRePtypymRaoOGyfCIlDZJ0d43hq/UNznk5RzUZyYF/BUl/4IZwBGIo7FfB4/OxHIkUtOkWL7Aa2aTFMkQrJGfaF/SZyZVO05Mji/CBcfgHcufITg1QdidkCSSAj0oMqOPZZVUFlFtq/rUpK4TUsKr9EG3pbwf/wZg/EdIgqSGoF3ykc62WDopvSvFpyaVrJlEt/qGsdu6AkPDvZACSNHrpGulN9qR/ANI1TVV2YoUeTkHugV9kInUo9cFwtZ4GlKebpwagk9EndpCe6A4UB3ilsL5s3KPtconRZgmTOB2pKQFLLh9VhuFuoat6ed+4EsYwPy3ScJYbQ4+fGxh8YuTMjX6DyBF6DvPTwmktLJGKllPebdw2iR89smkDbPD+veAsDCl0LQprjfIFUmKxuYYLpvBNPO/T0fqx0Wk1pJDUDfCW6gnpH4jNR6BYUzwoNOQojfazcqCSFEerqyevrWGw9ld4254TmEuTXU+HSn0O5PmDT+T22EGkG+AlPB9akhph4ZiSFHG7v85FLo4/xbWjKFhgT8dKVziaJRYKFBSvwApgYGOFCG6kMm2SYWNqf5rhmSEFkj8SHYlSMlVnxt7v3eQ0r4Au6Q4v/nV13jj/ATZUINJFUgxueavCSks1PvWvZ9+UmGRFOUHV896Z0R42u19cZM+npQCClqZkLkf3GTMNKNY3WeOP701UpyMBsbtQhg6BN192JKUZjmVfScRtbAZSFG+p/baYD0VIOsp0JFkmqVHbxKfGlsixclCv7qOBdbrVHHn2GTIbE3qQ50ustkoRqfwKswlzEDqZoh8icBGIW9c1cQoHEwAKZKir2DvRBOv44+WFDAhppHipGfaeIplmZSYVITdTxJFT5LfgfenTrAhD6pNWa3R4H4k2i3Hgf9zkWLs7CLLwYbqkTo7g05H9AbLPwEZ1LPmYEIhpYptqlvzYM+OhhcAo4f4TYAXy01+6Ys67s6rqHKk9mrC4CB9yWvNASrZRNsFbx/4NK8ESUU790Lzk85HRAJOZiJ1UMew3etJpXd7b6ocqaNVkQegVQWYaQVubCylNGguFA20wv5U3ELAtq9wqGCtL7B/hAnn4AEnNmI7V5JUbQAbFWbp6cMOUpwbdghI+ilepnqRQcdMMlYtFR6YdECfGBiVhViJwl1NUtAND98EgG2BwFVr/wjaEKWuE/GhPYcfBTKp+A0eZJo0bzD7pE87Q+p3ralKyK2Qgm0GDaYBWx0hs83tBgQiHEs9J0IKTumxmSZ0W08OCPWBe8DqTrtBihwtR4qOBW8BhZQw2HBkVG4KjYpNZ1983/Nmj6Jnrbxmxk4Q/IEj0VQZFJ9h98hHd57v+90r4Xvo7wwpxNuZigfKVFJtePk5Vm+BCQ1XLfUzyZtOcgSsaU7l1GH7Vb3+joUnYSS4P2PiblJtd0ghoimkxF0AzK7RM52eiooYK5ehpDoCc6X93qWUw1frpeiv/ympJlwyPWIV2095hcigg58eFfYxVbPkg/FR4oYb/YmSes76Y6GVJSV8y3h0wqUJFaXIPgZOCi6V5XO+odrGLyJeeEd/oqQ6Z4ZQSFDVJQW/ZfqAehZc698hDbCDEzgpYX4nL8Fqcvco6s2DN/obJ8VJtgNuFSZ1Ck0/uPGspfP0Zsdop6MhBb1usaMEA10xlL4t2AykwmszWf4qTAr4Osu+SRs9P2JxLzjReLBoSEmtRl1p96dos+LB+ilMpBQrCi4bpJINVjlyiIEUR6bmGWbpFJBqg1WL5tBMWP8lEWFRerDQmUV1pGrw1BU/R17C5ZH8SVBOzjdM9aQix2z+Q1MhmDE/qZ9HG83F4aJFNilEIjWZqgcRoabCOHs9Xt8nOAD/fZncPzjQbm0/X06PNj6OZO+loZ8sH4IKC6S6mwqskrAhzhtOCd98fmFBNydgEWBuU+GHlv6DyflJvTPC1VbyNUXoY2JJVWx0Wr1Qg455oqWvsBBjS4P6tNN7fL0P9Xrd6ohrtTRShGlDNq9lgZRTulJJEa7vFGI5UqUonRShe9r42pEcqVKUgVS4xNP9ukAkR6oUZSEVzmQHSIa1HKlSlIkU4ZjD71qOVCnKRIpfm+avjlQpykLK8EMQKzlSpSgDKc2vH27kSJWidFJSZAxVjlQpSiNF5QhOqhypUpRCitbNq96VHKlSZCbFHzL4PDtSpchIiu+Xc9bDKYNMpPhtpls4UqXIQIrJgb01cqRKkYFUlp35lRos2RB/34lspwzSk8qudiJ0K8uRsiEbpNLkSNmQI1UVOVJVkSNVFTlSVZEjVRVFpPYy/IxKDnUcKQuKT9inG8zzKAo3g57PdMqu6AQRGo/BnqKTzWk7x04pisMr8bR93TyKz6jTrEccnXC147MitHfaRn5EOr8mjTgqgBLQxmlbXceoOJnvFaHg7axdqjeGU5q8vdSgxxakRg912loNUjwq/pjr7JNTrIb8I43WxdSfRnV6j7wXih06tiNK+dhN0K3JGy7viwEVPC3y/RiwU6z/AOGx/Jor/gRIAAAAAElFTkSuQmCC;" vertex="1" parent="1">
                    <mxGeometry x="605.25" y="150" width="135" height="37.8" as="geometry"/>
                </mxCell>
                <mxCell id="12" value="" style="shape=image;verticalLabelPosition=bottom;labelBackgroundColor=#ffffff;verticalAlign=top;aspect=fixed;imageAspect=0;image=data:image/png,iVBORw0KGgoAAAANSUhEUgAAAWcAAACMCAMAAACXkphKAAAAhFBMVEX///8AAADc3NyampqlpaX8/Pz09PTw8PD39/fs7Ozm5ub5+fnv7++Wlpbh4eHBwcHT09OsrKzHx8d/f3+1tbVsbGyvr69OTk6NjY3S0tJISEh5eXmhoaFzc3NZWVmFhYVBQUFVVVVjY2M3NzcREREiIiIuLi45OTkbGxsnJycODg4dHR1e731vAAAbm0lEQVR4nO1dh3ajOhBFNBswHQwYU4y78///9zSiCRAYEyfZ3Zc5Z7OJMUJcRqM7RYLjfuVXfuVXfuUvEztNC/OnO/HPy+p0VzjlHPx0P/51SdAa/1SR/dMd+cflkMqWoRjI/+mOsGT1kxf3bOmNrenBDoFkb2zzTRIFCCk/dXHzhNDuje1pqCA4/3EzoZpCt8KfubhCLo7kNzZpkRbRG1t8i2Rlt5IfubheXhwZ72xUufx5OIvVjaL4+68tNRd/L86cAk16b23yUyILj+ZO3e++uBGiVtT3tk1uKwjDMEkL/Q3t8aa1mflVWTV4i6c/MQvqRr97evau9MXfjLOAEDH7H2+6M7ns5GVXJEkcu1mWhSD4/8x14zhJEr8I8supvZ+iOXd179woesdjny9p9+LvZTsYZoQf44fEme+xiA56VVo0k96R/ad784Lw/X69EWeteYalOr/BUEunfn+fidOcG/eOiJ/uzSsdP34Zztbgnt9gEaVw0Oq0UPO60H1I28/35hUxu5bjbf5oB+bqaV5N7dPtrt2XcO44uB6N9LfTIING+m04dxSPU+ygQtzdO3MZw4hEdMtXpx6B0nqlqHzkmGJ2oa7cFepWf8BNFb4AZy6n0AAslFYRj5+7R4Nq2WJ+gz9Uhy/jvfqJcEA7R7zP7xYpNIhPYFIj/nM3SekFP/KVyrk+9D/n39SFZaJ8Ac4VBys8BTcP0/6OAv5zwf/1c5y50icpBp837sKPhLc+3o/zHrf2YZu677tiDEATLbyVl3mE5mdCsMFznEuXZhj7Dn8UZ//9OIP7dWtpY6Gjox5p1Pz4CUche44zec4M18j7UZybjn+eeFXSPLlKUpvQDGrIo8vioNV+Bs4cHB5S9oZv/gjOjZa9BWeZF88UnufExHBAspBbrTuxHH2h8Wjn2AmcIdQ7DOb/LM51+PkdOMsdKBOPNwwDFBkcAymXP+ijKFzEpmfhvEIs29QQjh/BuWFKn8dZbkHc7U3PLXHdRQ9g0RL+rTr4cdmlvl8cLoXzvNGezMKZc/Jg+BD/GZzbic7f077KGeUl2TulmZd5rcWw0CObgosh83Bmyj+DM7Ea8bYfoAJ5ZLvQIYwGAmlakZZnwKHjS+GGvx/n9aebctDZtVhhtXvo1EqsYmC5zGz+ICLMv8bfj/Mb+LPpM3Q5EBVONni+jPpo+kHXag1unf7ZhvoXZy5igOyba07O7j5Tac36W4LiznVdfnFuPbVKDgKBwgjhvhhZBBHlafVoMk6caaX/9zh3kgZp6BlgkWWe0yLm19dmTu535ZETL/zMefj/jnMn11mGhp0tl6MLq1k+hKBSXRYk2+l83P5+nD8V569M7THzSCheIOTFM7RQ7/kLsiX6jNtV51Y1vAPnHynfeQ/OJF+UEbCIaYY4UUJlljVuzTtiFlSVFB+eFSwrgJrGWY4mssn/AM4QojkqnOFhegER4gSMsyWWOqsIdJz/Eu8dbLI369cVEmQSZ3D8x4tB/wGcBVISo2NcZU4iSSqirFKWcDwVW3okZnuVZanCSZwhwjxeX/wP4BxDUQT27kpusTaz+laojPq5Z5KTRasqJnEGX3S8VOQPwfkzdTIu3Pa+tcdrh0SLeJrsWVwk5FTWLnvB225lEud0EsRXcJZUc6uHoWjOmZ9XphD7aZAWiSuY/Ag/fQvONnjOLqoYHUGXU7aNWQ6Sw25gN7NFZfWTOMPH4x78bJxVkdKPczgd+JE7oUmQq8sqeWDgLCaCbUaGqigbWV5rmiZhme4Z5ONItAL8Z7jwR8kscp/9DHM8BhatEprCmZ9Wlwbn6bqvbR+3Sb7NrkZjmMQhzgbzVMQoiWgFK4CcoVuIjbDf8QxJrH9gMz2kSv5Ec+MyVRdPLjyuEA3OExODrCOGjA4A48ZGKh1+dYhzxD4XPRmTxR5dbOZFh5734cF710Urj1qcm1bXimpYjrcnsZLH+KkzcBYY3QcZsdKjSA2KoZh2Yzd2OjtUUZ/DqJzVOd5iKJiGXJFH+Xhr40LVOgVBfr33L3ocP/UpzmaztGIfOR5dNTksuqEbPAuRInEab7fADW16gzP1zBRH6Nb6lzJVXev1vluk+bWyoUNDqiDRt9B5orlRERn9omWi3OkZzm09RKVylA1hkt7KuaV4E18jPdRIFs4gW6rzH4ltGU+y0/37xTZNC0ZWKKgoTbxlmbJnODMsYy0Nzsw6c60tNW3oQqs8LAtdGcmu9lXPZhhOH8NZaq6RsCsze9JqwyWE4J2e8VxRQmnI+B89kmTQdHFRpuwZzuwRTmQa53YAU8A1CR+WwlSFKj2C4410YwznOmyfzYyXmlQ/VfJ0zKDuM2bKaYct7wWgNUsisRTO7UI1SibI4iTOlN2jHr860Wx17NSff8oeDr4+gnN1P+nsVVha21GMrwMk9LyrOh0WMjdoSFoUsGtxdjhJwtx+Lcsq73i1WizFuWUanaO1ljOGSa1Yg3k+YWjtGM7VZPtKJACz13qKTg5XIJaPR8Vywy7Xr+zyFH0ZlVH+rOWzcWblIpvh2DXwCfNTInWl31ATgQMNfBuB1e8D+eT6kisuoiYyVzQuVTm1a2nHilX4LsprjPuD2ukzONfDsXd+jQ5Dn2s2MmRhfHDYD7Scoc+byzPVYMnAjYzNiLRpeArn0Hyr1uclcbMJv9v7DM6cAZSs6A+xWmkZODfAzauJGOJc9eflVaN1Q9dr5/yDHQmHDqQa6Zn0SnlMI1PxjRMbkFqmcWbLBM7tzDkrIDbAubJUry+yq5ldIUswIAgblNd4fH043LajKcRgqItWFU7hrM/E+YXnWxsHxjChFrqeZozMvn2uAlALbGfr2WDznMqEtWn4plLSzQFZjhZt6zOFM2TP5vgpL+A8RWMQJeenatnDuVgMMxjos0SGkd90zOHOJ2W1vfTYPIBuT8X/RuVZ/HmO3/0Czg2DYhzrhfaEaXegg7Nar+xflCOFRrAHdRLBdJEdv3i1iK4wUViMycK9LbjGJM7J5F4xS3Cu4xWsZimPoRR3ytmgcW43BVgUg4exgJ3RkAy2VPJ47rB3kWmM+CPbJfvNTNcVmFNzf4Pz/Bm+AYe54cIwLFqMhyiapqJObmCJQtcYNGvPcjWASKXEBnq7JJD0jjqZeTivrX0bWmJvQdPGGhoJxpAeCW0zItWzbqSKB4OjkikpUo8YbEtoLx5BSRL8L6+EJQ/ze3BWvbhb/Dqy1Q/PyKf47MKBsRTCgk1XYBIsmkEBJi0PuAyU2WiC0NhBFGGush0nnV/13MrX4yw57jBCNUpBB1WyaCS+PYbzEmU7IAHV8VQy8VuNCc6iElQZ5nA8R0aekSxZr/kOnKf8Cqe/+vEJzt09HygV60sX57DN1iywHHtk6k7lQoEai1CFynNgJ3ZKo70FSTdgap8t2HjrS/VZEig74NvRyqrTYlOPJhokyFk0gsbZ1egC29fdNR7tOL/m7zZpi8tuHPhouq7X8Tmf4Cxx3DV/+QpfinNLiHNR7X407VpHhz7Qw9Bri/OD4EAtD37dfOK7d7Q6CZFAZofLC26FqSaPotq118t0m36ZSk6PydfZDadJ6VI8uI5vPJut+P5eVwP3t8W5ctmoxODLJXc+yjmjXN+7C7D5xTgfwDhEoXyO8yrz6pR3ehbNBTVQX4ZzM38f6E7NxZnjlO6MOPCFGpybSak1Ny9XWGBCGVml4cg/kMcZBSnvCjEvEksVBwmI7U85dcGI+SqcY/bBGp05LqRM7ys2mN2EQb/brU9e3iFSA57hVAnKArfo8LpLuI8D6JeWCfO/DGoX8AN5PTL6RTjvR+64ts/zOspT1Rh9WzDEmdp74eVQPOYSan0/d+yt+uR/EMVEQu29mrDeW9K49PVI0jtwHk7wrWr18iC1NZmrEMlo9xg4U5u2vHo3JmhEGfML+QM2awly4c8CFdhZ4egaEA205bXWua/CuWGz/QE8jrMZM6NGTe6ubxIbnCnHnNp44MWpCrwUiYqvaPgWjmi/w/a6/1VZVp3XwZq1zwlbJnBuGu17TvXkNsAZgnUsmtCMjDk40wGS22vVLBkQ59Zv9cgF7pLiDGNGMi+/7hG2sa434rxpGu3jWeM86CeQKmbuJh/pXkPOOylIauo8vrTzi4HQqR2GxDGCoT4SGj2+vPtX6xYvx3kwuzflMINHUN/JgNeREDIriVIbjr4daBSkm+qlNja8vgQ0NhEelTrDD/J8RJs7m8GFL4dG2zDacpwHetjq8713pH6sef+U0jYygqDV3DYo0mw0t5uqosgdOr5iOkyUnKSW35zJ8/VM9vaJ1qsJMqpbL3PvNosxONS2ao6ckmFlU6Jto4zRSCfqMNqAOzaK2xsadAz79soe3OgaBW3/NB4GzEVBV/aXJ/LTLKGiMS+nfNrwxSD6QMXcKH3ounjlpFMbwHpTqz6edQf71bWtgvQrtDtpxhd4tID4Ij7UJ2IzpYl5wJHZeaiC8WvFjJ2U3KtzKFWS3u8IXYRcruKRrT2z3L4GojFC5w40NR0aqDNVtd636p3Nu4rZRYcy8rW2tr/2RHIAlAzKiB4c5kt1IutukuOsRy9YtO7t9MwYC1KWnOv5RKU+9LeWLEmSHAn1nnL96V3qKK3vdJWre1eB7Vj8HO1zkUYNuOqGRBblUHltfnHBxmKt0bmnrj3DqhnhIEeSZtv2bhiZPpCss280PqeZttfsE0rZdZlDVAy+cQr8NusiM1aczHjHi4L01tE51zVrAbHEoU2vo7A+8GCeuYsdI23RyFPqwcougbTXZj3DvdblA51JcqI7veQ4c3EUopevsVa4zYDER03dQw6zYGnCioN/5u7oISctLEgS5oZoJu7r6Yb7oyv1KDvdXyhQb0PW7s7e7aja3/W/lrzPrD5GvkhBybi7GZioSO+9HuJilowHHm2gtCWTgoz5zowWuVp/Tpf8cEgPh0OQX5oc08ez2MAGjQhtBlV6wX9MZehL2MWhF2Ht00G+Ox4WddPz6e2SBwfo/vHUIUx9u3WZxVp9JPf3pDqaTYHlpmidJamYWzGpmA6v9e5VWquW48xwWLxQt03HUtfNul5JUqyo5yRttm6a7/xs22vRnFjmLUee7iZpkAdpHHpMsiDb+t7DvVemFhXz8cHPhC3upKGsn6w+bkRFfjVUz+3086ijgIKFmoovGHwLsle/UkqM+JJJ3psVdbU/FFnIaZ0im73j2q/MExn795W5qyIEd5EzRIJ5CiymjSOANfnkayj+xxJij6jWYPeG3RZHITa5zjc01GcPjGqiaPlXJgWTC6Mm0YETIJVMOR4Jzp6Ph9Zl9iSuEP+kF+j9ZeKhCzCiI1Hqe+VKVDHYHsFwsA/yazmWSo4th4t9qjJEeofAiiJUZqMbTccktpjYZuBXJgW7OBZYjioUTUh543MNYprBt7/j8p8RFxPjNq5wOQGHl+vs2W1L7dekypzy57wbWWZ7l3PSNyOnfq1IwCqaRXapEUNP6chV41oqN4jjvPf9tEtlJbDi2mvxfHp6qsw89evFBCibYNWNKKxElYa0KmziafAxWPj/I2KeWGXixnEkH0SL+O1vNqzEh/oNKopCbmBHTPaDhFzpAogI5T/Syb7w7HL8W/78VO+H+KmGULGhI3cPk4Afrrc+MdTt5GeBr/4z7y/vicHG+TKjptP6KT/AgZJnREuxgjDjkcdGpYBKj1ogHnb7IwIdP47zknnKRQeqsuUB0dqMTI25wwlHmt5tHYjG/wGk46dxDhct3bwghzIcsUnC0j4kf89bjp74IPhvLlyH+7oYvME7ku2Ywlp2yMuhMFuIIU+Fcd5ykdfJiWz1vXMucfbcEL5sGbypcIpjkISpmWUkul/jvNnuyetwZTvF/8Qy8u84nCqG+Au8EFbTparH5W+8ySm2QJQsRLlnv74BjIo+qHQuVu2DhxmHp5J0XEbTTf9M0vvf44BbD/RwOLI/tSSgkwMmTvBIFYSKAogTXJtUi4oSvShT2KubbwYApguTDKf5KMZfC3amTwK9Vsk3XOS6pAAB32QC95ziM3coj6EKwC9jlvA9G9kiukvc2ke7uHKTVzk6p6NrPSfEw2cfapyPe6Eoc7t5mYFP2xY1MBoeOn/+dTlzREU5B+lZFS7Mw3CyCeWR8JGDBljVMUSZZB8tsrYhhx+kViYldH8LVfsxJN5ysoidmJwEaBTZ0QwrJzydHZ53JI+QPrWkfle4rgWnbLHtlGxCxdQHIpdbsHCTI93gOblyuElcwyDbZJg58iOvAENdiQIXCNHlbe9BnJQECh50YDz7nCvdpChFBxlDQexzU3Gul0PstAPKt4feXyL4FcjRyYQCg5hTRHTzKpyNskZGhJu1iS/GE7TvJIRTkGbJ5z7+1cnJ1u85IQQhDKfVvF1TGHKFpiuVrgyT4+JeRLCAhQ+vV9oa4cfOfEPF20XBM7SGTYRWbofloxT55IWqapk9T2qci3LpFOBsouAUiJvqYwPbGg5QzC9HgeQPid2wy/N5mOTtcr4hPs6F4OySwk0TcD6iA4pLLdsRnPeg5ctxlqGGrk6cH6q08R7lGuf5qNDxj0NLZYD1nV6p5lssGTLC0ECiR1bs+E1tglHhXGct/bKQtsS5rQZUsJLeTfL9cz2fW3DqtgTKgKFS4wynMXBuhvJbcMaPXafry9JQd4mX4ttWXQPRth2jKFi04dqrImO3VIMqWnK3dskxNbke9w2XF8tVZ4+A1MyQj8j0HSKfICdVpc5qZTdg5udgYFrQKmjQitDVGmd4KA5cNCstsawxcXae1aQwRIfJt4a02oAb8uBx+4rTvLHK5BF8h8NCoj4Oysu/LijjI7CQPLzMwdg1qTTpgQLHOaCzqWJo8oi3q92QPqqSti06O7x3DKExSMe5qJDxuAQQbajjkwPyCMtAlF/ZZ49MlQIfuTeNq2pYdGhwjXZrjScHX7+lAtrVyiD/KSHo+hjunWo065M+aqsMtdM5Vcj2dUJywfdq7MAq3gt5ae0e6/iN0iYF/53yBUowjRBxr5PKrEW1ETGv5YZsEbrdLqDFmMheq1FyrZRG8tE930Os+OJx4vl6LtacginfFS5UoPvFxl++wXMSy2ksXxSFyMFy9bcuxnJp14TemukvRfp1yaLnRUKFslq3qfeQ1/jvzar/JUrKD6G6pf0NxMaWoOKp5X+aVB+jf8pS9bsEF5bKq18X2ekdPJ5eQd+jqqG5KNbef6B7c3ci2Scl+R6C95VifyKofl/mGu/Qh9oB+v5AhhMgKJRROC190GtAlDId8NdnwZfjLBVLaUcKPrXdBpUy7GTv1xYUU+6qPEveMufyLULBn5FjWSz24niNseglPkRi9ACHtFvHfMfu/g09bE0294JNxzsUHYhJ/MRpkTbf4KdLwrLJYpO3s+Y3iog+wJdiv3Hk4gu253SJMy+k0y+u1zArDxbz+rkSPi+wZovlGKr1Ld5tV5wywEy43LWE2+9uR9Rf10H28hjd6BCcx4e76PUgr8gm+aK8X5x/SbPYFlzQUefJ4qasBHiXod32UMPMeAMFIYMJ08xVPPHrCeAX5aOUd7zLe0TouoJzGZg+6dXaEN1hTbIlmtf9IDBdwfwNScXoi5iP94UqUkVIb6DOvSVQQcGM8tcLRHZ256gXEsvzPN3/eVmCMz9BGNRl5v41adfVdNdBBsnhhFC48Qb3JIV5VeJ7DZulDlU27PQFI2/gH/GjODPIRDltayeX9XH562W4W6nUu/IbbqtidnYBJTN02UztHxJLoAjc2tyLDnF3JUfUt1UoJNCdTbuF6ifyid7udCzfeZfFnH4/lftPrbBlO1ADJ8NUaEdwdtDa2eVwA+H9RjZohyIl/eMcU767fYFdxclquMuteToK5kWHGkRy7APPrFoGeKupLmUnlG8MCHfw9UWPC3JXfTEBrYu19tFZYb3wDJMS5SBVtXlHsaIbtDPZmHlQKKVdPVrML3ALPiJVBN9JBgbvYgp5ISAIkFyqMZHu7kaxiWcalpumwoB0VT6FOCrsLipYWVvvo30gWSYLuEUUR06twxC3tltuaCMfjplEo1TYkjUjb9bOxLgMvF4KTtq9IyWNMcydsFjxAWKK5aAYlPuIMuOjWSQsi6y1muRBXVxYyhtdIajtmZ4t6ro9vSlcubB8T8LOH+T3AGb/FKKXfhPPjx8lTqCZAnK5jcJJ5cELBMlDQvjiJny+9vGHBbCmTnWCk2jcqo1z1r96ZORqJbZn8jMBdPfw3MRZKwifirFDieUn2hjSWHmO9z0EZH1MBVFeFXZI1r48Id+bprd3C2oN5PnUM/mTnli5GnVN7iYgy79EOAEdsB960etTS0ydym6QTmxLY03SJjoJ8fPddR/5hXzWm+usFmelTrWWFjIn8dmCwEoc9QDJ9g5lbzAcpPM3pPNutlGx3b3d0UAgLw5q5gvVCztcsxzNkAKjakk2vHNCh3I7Buz8PHTP4fnIO04HytVq1S+JsAen8h5VWNB5oGhNtfq8xNksmbpe4uxAXqrEWWrTWWs9D25Hro8zn1wObS2pUvVMGsH5jo7COwM72F9xI9vlZSHrLZ89lFb7YKGVhVS3QNdyQ9VUdDzi33wEhzwP0kQX7S28n/XcPqirXxxKYj6Fs1QNywfwwhpnA9Lcna+Vj7qDs11m7R0wGSXOcnMlHgL1/gDnEJ8p0zjrVR8I7xjg/BbT3BE8wwRkqSnsBhy2LriAaiYH+Mki8tIAHVI0tZZ+KJNFZCkBgiTqKpy3YDcKYmtXdQ2FTxR6X9kNgvOqnPZSwEUntslrli8X8HcKdsOgnzIEJDc0zpU9H+K8BYjFchTp76SsJlZGHZRiLWKSpXjuZQDXGQhdFt3DQmPvzTwi0/El+YhiLyQAYsLhybACOpThLYS7OGh8+RVUEF1ydEqh+GgXAYPAPGHvBWRNOXZkYzts1U9Auz30VoSRIOxrqIHOHFBba3XDx3TSkCmBqcLkVb4gR+PkgsT3fPQRF++uWTcwYdp5YHojP7DxfL4Rz13AYOYDs7EdPoMR2SVi9LRq3czishbDz/aCif1LIQOL4GUh5Q6v9TRUuQDrlqNvsY2DzzZinJVjRUdiXOhUmEv0dUUmxXZGXNSElFOyxMPnt5VkbiHI3CbRBVflfF3cm5yb6a7DecJWDHHHnTDzviCbBFsopVilOG0Pb78Wn73LcVJS7/sWieiv7yj8w2KFd3SOPUVSLTELZisupcK6Z9ox2n1rWF3/1Mvlf0g2ZoxnvXMQbi1VXkXmPnRjN9xGZjP7Mba3KSWod+D55tTt36fPtVi2Wy44LDK73bBqrSjV5GulyN12QS6eeH5fKOHfnSre8KYYFjmQ6FNQxCEmyZ6HZ4gkbQ3Kx84XTENRf1Khtufd9fL9+b+3i7Re8Y5nh3FxuMOqi0ue+kmmb81I+Z4q6SfyRyzE+5Vf+ZVfYch/Pl56/JU+cXMAAAAASUVORK5CYII=;" vertex="1" parent="1">
                    <mxGeometry x="565.5" y="250" width="99" height="38.61" as="geometry"/>
                </mxCell>
                <mxCell id="16" value="" style="dashed=0;outlineConnect=0;html=1;align=center;labelPosition=center;verticalLabelPosition=bottom;verticalAlign=top;shape=mxgraph.weblogos.github;strokeWidth=3;" vertex="1" parent="1">
                    <mxGeometry x="64.03999999999999" y="50" width="75" height="75" as="geometry"/>
                </mxCell>
                <mxCell id="17" value="users" style="outlineConnect=0;gradientColor=none;fontColor=#545B64;strokeColor=none;fillColor=#879196;dashed=0;verticalLabelPosition=bottom;verticalAlign=top;align=center;html=1;fontSize=12;fontStyle=0;aspect=fixed;shape=mxgraph.aws4.illustration_users;pointerEvents=1" vertex="1" parent="1">
                    <mxGeometry x="290" y="30" width="61.1" height="61.1" as="geometry"/>
                </mxCell>
                <mxCell id="21" style="edgeStyle=orthogonalEdgeStyle;rounded=0;orthogonalLoop=1;jettySize=auto;html=1;fillColor=#1ba1e2;strokeColor=#006EAF;" edge="1" parent="1" source="19" target="17">
                    <mxGeometry relative="1" as="geometry"/>
                </mxCell>
                <mxCell id="22" value="" style="shape=image;verticalLabelPosition=bottom;labelBackgroundColor=#ffffff;verticalAlign=top;aspect=fixed;imageAspect=0;image=data:image/png,iVBORw0KGgoAAAANSUhEUgAAATIAAAClCAMAAADoDIG4AAAAnFBMVEX39/cUpVMWnEr7+fr//P/8+vwAoEYIo08Alz1QtXfE4tDd7uQAmEAMmkbI4tEAlTju9PFKrW0cn08xrGMjq1652sQAoksAoEQ3qGGbyanP5dZMrW7T6NwAlDPs8++Axpqf0rKMyqNpt4NbuX9ovYhdsnl4w5Os17zj7+ir17uQzKaz1795vpBsuIUAnDpNtXU/sGyDwJWkza8to1k3y3CBAAAKcklEQVR4nO2dbXuiPBOG1SRClRdrq66u2q7dbmltn1b7///bEyAJCUwUxLtKyPXJInLI2clkZjLBTsfKysrKysrKysrKysrKyqp1QoQKVRdBl/7mlxIZTqgG1TUZjMilv/xFhB//1z9Rs9mgjcxQ1O+eLMdZX/r7X0D4YXo6su70H770Dfy40LCGkVH1l62bA/C/OkZGh+Zn27xZXSPrdmcvLWOGn5yayLrT0aVv4keFFnWNjCJ7aNUMgD9rGxkdmsMWzQBoMKtPrF0zAPk6g5FRM9u2hhl5OYeRxWrPDHB3FiNr0QyAH+tPl0z9lswAo3MBozPATSvMDP+plyopmk3aMAOsz0iM6tK38wPS5uPOMYGfmv4xfmiioSbAmH7+ffq8OSQYmvkzAP4LG1l/i49pCH5y+mS4N0NL2Mimf4+PLwxHwKavA5Ab2CXNohLDC07mnfv//mtfUESTj5dz4mgJxsD9N5NnAKTJx6flPq5ZYpmWMdGGimxhI+u/lnRHo3sI+fTJYDMD77jr3JV14GTSshlAl49XuGP8BA1N597YkQmHZFXGFVqDZtZ/NHNo6vLxSvG7xlINnQHW8LCsWCeEi+BlQuHmSZePV+xI0aznzQLzZgBdPl7ZDcHBmXNn3sjU5OPlAwwhODgzbwZAQe0Ag0sTnE1Nazkj8Pq4c0rgTv7OgIv1/5nlzcgENrLT2sTQ49d9UQ+GIYOXLk9tRkRQCdIwYq+wkbWy5bWk4JqPebPc2YTfNAHGpb/Y9UqzdNmOdduTpEmVnE87LDXSlOy7s/b1oZcVXBY0tPhwFqGBpuhjZonrHNJ0eWrW4QgmNfXT93d+6VaVwKZNvH79ONiXcVxPP36HZ5dmUwRUi0Wdh1l/erQD6KCmBrRpY012WdxPg9Z39TtCTZiGNUHZ9LFoDXf1m/UcE6ZhtAB9WbFQVnfvXKK+EdOwpoKdjzFQdIbNAIZ0taMITpdyQ+gsXceOIXsnNDD6C8XMdJ1nVWRQMeketAg1Kx+BJ1WSc2+IkcU12RL9OmdAVrrnqgGCcybn/rzIjFr9RcHxfh3Nql0FmdVlpqn/yHkmgYvd5eV8GeP7Y2keWCBXM2rHZbOFQeOyo28MllrL6j2e5bR196vWCE7OlXi2Vo5p3uNZNN2H8mhC6xrMjHwIEFgEUnw26jwcLZdpkRmRj6vS9Z8ra5kkery5Y/q85fq6yzRt0x5DDCaRajzbQUTcOtyfEmn2pxiTKsnSbJLrA7XGAyJga59B+bgiXetnJQMB15GN3SyH4C72am4IPwLczX0si6YBqNJkNwIuYViqpAoiVimkAgd3f2BegMGledhP+R05YKRi9vNF4C2spfd9oTVI3LhUSZamcFZ2vZZAw9L0DiIC76csN7TgcW1iqiRLUxUrVetCa3BUm7F0eUCaTVtlzAwu7Rq3D6eo0al7A+G83uwnPqSCC2fO/ejo0IRQd7tmOzIm+MENXxFGqKP/WQS4y6XfimcYa3aAOc7DIFpHy+VS/T2EYJloAE+1Ji1dHpBuxXLanyXK/xxCehB+EldLNlvoni5VXe15GO9Zmu9imbZ0qVet3+CQZHqqJEtTOKsq858pKOscjy82P1WSRV7OMDRn5qdKsnD9Z7G3IVWSpdsLVl5OGx7CqwgunFUxMmNXlXSq+xM57YliM9VsJ2tPFCup1uPF2xTFZqoVz5qxV6m6ahiZiQ14JaTZQVFGrfoJJlnk3wz+ydCjPylqaG9UCeFoORxGw8rqtC/AyIQO1fu1uvS3trKysrKCpXmODCIYqX/npe6dFn8iArr8bCpAmgfX6I5fm9Bov4MWGEn0tpN7L8hkntc+exut5+xstH6dL8Dr7fdRcpws5/MIOiOYvxzvXLi8UPTteuGmeHzhet5qnt3ZyCsoFLkjGvr0KnG3dvpqXiCCt67rhgH9AJmHnusvC2eQ99ALvxtQ7ybvXq/Xczf5/y755dPjK3EHeBefp8oTHe1kE78bIyTPyfXyiTiehPSw/00Pr1fxKzfI5QT43Y0v+X79YxPfxmh67nPuq6JVcjjg7icKC8ToDYrTv5Oz6QAfjZNXubZrPEkuF/8LUOD20ksrzFJiPf/2+rMrhqzAjKjI8KZoZPRt/hQCBkqHDG8Z8HCI0HLVKzJjxHrepjnI8mNTRYaW6T37mZI/f5VCJoglQxc/M/pexowwYr2wAQ3bAhllJh9XkZHfDNFvrsTV9UL2/kFkGbFeOmH8Tpn5Hp+RkSDWhOagDJlqZwoykjjvnj8m2R7ClCEbzoeQpZ5fQoY4s567SOwMbQSx6x+WCjLFnynIELMpaWmN7N3MbA4h455fsjKZGb0ieWbEVo0gpiCTmcnIGB7/Vhk1yee8XXKXemR4KxHjhCVmAcbNsjGBrDAHKFbGbimQXTONSJNZINmgORrHr8MiMuHHfBkZhcYsi/qzHSPmNoQYQ+Zv8v5MQobfvNRvqbc0SqaB2wTO6Jm/VpHRmD+9rvfsK8hYyJtAa5aNcWTefhGqzDJkaJ2+5eZXPdJ5AKmvFWTC87u7pasio3amRHrNIcaRzXHAI8xNmjsLZDhJqWgqk85uwC9EdDTIhOcP3/Eij0yMzaYRE8gICbhPSeYAgQwNU0vxEqeFF5tfedEcZ7R5pvodKAMzI7bDqIiMJabpxfMZ5zVLIOuQwPOzsSmQsVQpTcFREHp+TuFrDMoruP8sS9qRDoQMoTEn1qjuswxZJ7OzDUICGQ9jv7OzFfnjDhhkCM/vxsUJEJlkZQ0alzIyhRkWvoywWkd8Cs4Do8fjQmMRWeb5Ex8IICMbxZc1IFNikpFRZmIOwCFHxksP/poOto98QSMxsiKyYMCvxGaNAjKFmMidmiAFGWXGbePD58h44SeeMlE0DnlNlp2Y1H/yyPx37sdSYkVkIktyeRQNVb+vUiqyeA5g1tMTyFDEioJLanKdLSv879KsIXFxBWQ8m4g9f6I8MmFjXrAReUBDmOWQZf4sQ0bD/zTHTMJ/vryURmtuumRSQMZtjF82h0zULmiOyfOAxjDLI1OZ8XrZ2OdImFhhO/VkOmTMjyXnK8jIhyBGsjzA95rhzwrIMn+WISNbFmhg/ssbbB5wWSMUiEwipiITxMLUroSdNcOfFZHJzEQhm9U7vkXIn94kXy+BkIUSMQWZ8GMhH4nZXNCEp80CyKSxKZDxrF0p/dNYjVEBkIXK8pqEDCujkr3NmTWn9q8i65CBpyLTrDD5/ANFZCoxgWxIc1YWsXmyRfGx6X1cvzsDkVFmLhs6h9Yx3exTuXVMxY8ln0+LP8k6ZgiNQTYHNGEdMw0WVvknZDF/Jq2W/wHMTDwyj62WDxFbi8oTo0pWy3t8tTzzY1zp2PR2DXBm63Horgr9BR0chK67mkt37tEDiqSODRT5rreK6xFosaLvFImRfXx8EicT81XcnVE842PlhuMG9GTQeH7yAsWQJHrZyr0maDFRtd3LVxm97Ic4/dx+C15vsZ8Mk+N4OXmBO3+22871e/9YmhZglOsTy/eXIfWuxdm6luLseojoOtAaMCqtrKysrKysrKysrKysrKzK6/+5B90+q9Z7SQAAAABJRU5ErkJggg==;shadow=0;" vertex="1" parent="1">
                    <mxGeometry x="454.3" y="214.61" width="98.66" height="53.2" as="geometry"/>
                </mxCell>
                <mxCell id="23" value="" style="aspect=fixed;html=1;points=[];align=center;image;fontSize=12;image=img/lib/mscae/Docker.svg;" vertex="1" parent="1">
                    <mxGeometry x="480" y="300" width="50" height="41" as="geometry"/>
                </mxCell>
                <mxCell id="25" value="Front" style="rounded=0;whiteSpace=wrap;html=1;dashed=1;strokeWidth=3;align=center;labelPosition=center;verticalLabelPosition=bottom;verticalAlign=top;fontSize=18;" vertex="1" parent="1">
                    <mxGeometry x="240.55" y="200" width="160" height="150" as="geometry"/>
                </mxCell>
                <mxCell id="19" value="" style="dashed=0;outlineConnect=0;html=1;align=center;labelPosition=center;verticalLabelPosition=bottom;verticalAlign=top;shape=mxgraph.weblogos.html5;strokeWidth=3;" vertex="1" parent="1">
                    <mxGeometry x="294.35" y="214.61" width="52.400000000000006" height="74" as="geometry"/>
                </mxCell>
                <mxCell id="26" value="Develop" style="rounded=0;whiteSpace=wrap;html=1;dashed=1;strokeWidth=3;align=center;labelPosition=center;verticalLabelPosition=top;verticalAlign=bottom;fontSize=18;" vertex="1" parent="1">
                    <mxGeometry x="40" y="170" width="123.08" height="100" as="geometry"/>
                </mxCell>
            </root>
        </mxGraphModel>
    </diagram>
</mxfile>